# xmcd
#
# Track frame offsets: 
#        182
#        28835
#        51860
#        64597
#        91097
#        103400
#        136365
#        150195
#        170580
#        191772
#        210155
#        212607
#        224037
#        244472
#        257317
#        289970
#
# Disc length: 4434 seconds
#
# Revision: 4
# Processed by: cddbd v1.5.2PL0 Copyright (c) Steve Scherf et al.
# Submitted via: ExactAudioCopyFreeDBPlugin 1.0
#
DISCID=ed115010
DTITLE=James Brown - Soul Pride:  The Instrumentals, 1960-1969
DYEAR=1993
DGENRE=Rhythm and Blues
TTITLE0=The King
TTITLE1=Mashed Potatoes '66
TTITLE2=Gittin' a Little Hipper
TTITLE3=Go on Now
TTITLE4=In the Middle, Pt. 1
TTITLE5=Tighten Up (live)
TTITLE6=The Popcorn
TTITLE7=Soul Pride, Pts. 1 and 2
TTITLE8=Sudsy
TTITLE9=The Chicken
TTITLE10=The Chase
TTITLE11=Come on in the House
TTITLE12=Lowdown Popcorn (Buttered Version)
TTITLE13=Top of the Stack
TTITLE14=Ain't it Funky Now, Pts. 1 and 2
TTITLE15=Funky Drummer (The Original Tambourine Mix)
EXTD=
EXTT0=
EXTT1=
EXTT2=
EXTT3=
EXTT4=
EXTT5=
EXTT6=
EXTT7=
EXTT8=
EXTT9=
EXTT10=
EXTT11=
EXTT12=
EXTT13=
EXTT14=
EXTT15=
PLAYORDER=
